<?xml version="1.0" standalone="no"?>
<!DOCTYPE svg PUBLIC "-//W3C//DTD SVG 20010904//EN"
 "http://www.w3.org/TR/2001/REC-SVG-20010904/DTD/svg10.dtd">
<svg version="1.0" xmlns="http://www.w3.org/2000/svg"
 width="500.000000pt" height="500.000000pt" viewBox="0 0 500.000000 500.000000"
 preserveAspectRatio="xMidYMid meet">
<g transform="translate(0.000000,500.000000) scale(0.100000,-0.100000)"
fill="#dd722c" stroke="none">
<path d="M1043 4703 c4 -3 10 -3 14 0 3 4 0 7 -7 7 -7 0 -10 -3 -7 -7z"/>
<path d="M3120 4355 c0 -3 2 -5 5 -5 3 0 5 2 5 5 0 3 -2 5 -5 5 -3 0 -5 -2 -5
-5z"/>
<path d="M2305 3973 c-483 -44 -894 -336 -1125 -797 -46 -93 -64 -111 -75 -76
-6 19 -39 44 -59 45 -11 0 -25 37 -19 48 3 5 -7 7 -23 5 -17 -2 -28 -10 -30
-21 -4 -31 -14 -32 -14 -1 l0 28 -16 -23 c-12 -16 -23 -22 -40 -18 -21 4 -27
-1 -26 -23 0 -3 3 -19 7 -37 6 -31 5 -32 -24 -28 -34 4 -61 -19 -44 -36 8 -8
13 -7 18 2 6 8 4 10 -5 4 -8 -5 -11 -3 -8 5 2 7 14 15 26 17 20 3 21 1 11 -18
-8 -16 -8 -20 0 -14 8 4 11 -3 9 -23 l-2 -29 -40 39 c-34 32 -38 40 -26 48 11
7 6 9 -17 6 -31 -3 -31 -3 -16 20 10 15 11 24 4 24 -6 0 -11 7 -11 15 0 13
-11 19 -31 17 -4 -1 -6 4 -6 11 2 63 -3 77 -28 77 -26 0 -34 -15 -12 -23 7 -3
5 -6 -5 -6 -10 -1 -18 -5 -18 -10 0 -5 -8 -12 -17 -14 -15 -4 -15 -5 2 -6 15
-1 12 -5 -14 -16 -28 -13 -31 -17 -21 -30 8 -9 8 -15 2 -15 -6 0 -12 -10 -14
-22 -2 -13 -9 -22 -16 -20 -8 1 -11 -2 -7 -8 3 -6 10 -8 15 -5 4 3 10 2 13 -2
2 -5 2 -2 1 5 -2 6 1 12 6 12 6 0 10 -4 10 -10 0 -6 33 -10 80 -10 l80 0 0
-367 c0 -203 3 -378 6 -390 6 -23 5 -23 -86 -23 l-92 0 2 358 c2 415 3 395
-10 387 -5 -3 -10 2 -11 12 0 10 -3 13 -5 6 -5 -12 -54 31 -54 47 0 6 -4 10
-10 10 -5 0 -10 6 -10 13 0 19 -34 57 -51 58 -8 0 -5 4 6 9 15 6 5 9 -35 9
-30 1 -66 4 -79 8 -17 4 -22 3 -17 -5 4 -7 2 -12 -3 -12 -6 0 -11 10 -11 23
-1 21 -1 22 -15 3 -9 -12 -15 -15 -15 -7 0 7 -6 11 -15 8 -8 -4 -17 -2 -19 2
-3 4 -26 6 -51 4 -36 -4 -45 -2 -45 11 0 11 -9 16 -32 16 -30 0 -35 -9 -6 -14
35 -5 54 -39 21 -35 -35 3 -54 -1 -48 -11 3 -5 1 -10 -4 -10 -6 0 -11 9 -11
20 0 14 -7 20 -21 20 -11 0 -17 -4 -14 -10 3 -5 -6 -12 -20 -16 l-25 -6 0
-434 c0 -239 2 -434 5 -434 9 0 50 25 57 35 4 6 8 168 8 360 l0 350 220 -2
c121 -1 222 2 225 7 19 31 35 -6 35 -82 l0 -81 -157 4 -158 4 0 -79 0 -80 148
3 147 3 0 -76 0 -76 -151 0 -151 0 3 -157 3 -158 -87 -3 c-94 -3 -102 -9 -59
-42 15 -12 61 -48 102 -81 41 -32 80 -59 86 -59 7 0 14 -7 18 -15 3 -8 11 -15
19 -15 7 0 24 -11 37 -25 13 -14 29 -25 37 -25 7 0 13 -6 13 -14 0 -7 13 -19
30 -26 16 -7 27 -16 24 -21 -3 -5 2 -9 10 -9 9 0 16 -4 16 -10 0 -5 11 -10 25
-10 15 0 25 -6 25 -15 0 -8 10 -20 23 -26 33 -18 68 -59 61 -71 -4 -6 -1 -8 7
-6 8 3 13 10 12 16 -4 16 54 -6 61 -24 4 -9 14 -12 36 -7 23 4 30 2 28 -8 -2
-7 5 -15 15 -17 12 -2 17 3 17 18 0 12 -4 19 -8 16 -5 -3 -16 8 -25 23 -16 28
-16 29 4 34 20 5 20 7 5 22 -9 9 -16 19 -16 23 0 4 -13 16 -30 27 -16 11 -35
32 -41 48 -6 15 -25 35 -40 44 -16 10 -29 23 -29 30 0 7 -5 13 -10 13 -6 0
-15 10 -21 23 -6 12 -30 33 -54 46 -24 13 -44 26 -43 30 4 32 -4 52 -19 49
-20 -3 -43 35 -43 72 0 36 11 70 22 70 6 0 8 -7 4 -15 -3 -9 0 -15 9 -15 8 0
19 -9 25 -19 5 -11 20 -21 32 -23 12 -2 28 -13 34 -25 6 -13 14 -20 17 -16 4
3 7 -2 7 -12 0 -15 2 -16 17 -4 15 12 16 12 10 -3 -4 -12 -2 -15 9 -11 8 3 13
12 10 19 -3 8 11 3 32 -11 20 -14 58 -39 85 -56 26 -17 47 -35 47 -40 0 -5 8
-9 18 -9 9 0 28 -9 42 -20 14 -11 33 -20 43 -20 9 0 17 -4 17 -9 0 -18 90 -36
91 -18 1 7 2 23 2 36 2 25 39 59 73 65 18 4 24 -5 43 -67 122 -390 506 -788
874 -906 20 -7 37 -17 37 -22 0 -5 7 -9 15 -9 9 0 18 -6 21 -13 3 -8 20 -20
39 -27 19 -7 32 -17 29 -22 -5 -7 10 -12 29 -9 4 0 7 -3 7 -8 0 -14 108 -61
138 -61 14 0 22 -3 19 -7 -9 -8 89 -43 121 -43 15 0 26 -7 29 -19 3 -14 12
-18 36 -16 19 2 40 -4 52 -13 19 -16 19 -16 5 2 -15 19 -13 19 61 13 42 -3 82
-1 89 3 19 12 36 0 19 -12 -10 -7 -3 -8 20 -4 18 3 47 6 63 6 25 0 29 3 25 20
-5 21 7 34 33 35 8 0 15 7 15 15 0 10 -8 14 -25 13 -14 -2 -52 -3 -85 -3 -64
0 -88 -9 -83 -30 2 -8 -5 -16 -15 -18 -14 -3 -18 1 -15 19 3 24 -54 46 -94 35
-10 -2 -18 0 -18 4 0 5 -12 13 -27 18 l-28 10 33 1 c36 1 45 21 10 22 -22 0
-22 1 -3 8 11 5 23 4 26 -1 8 -13 259 -10 275 3 8 7 14 6 19 -1 7 -12 46 -3
56 13 4 5 18 8 31 5 13 -2 30 1 36 9 7 7 24 13 37 13 14 0 33 9 42 20 10 11
23 20 31 20 19 0 86 36 101 54 7 8 29 20 49 27 20 7 44 19 52 28 32 34 90 51
90 25 0 -8 -4 -12 -10 -9 -5 3 -10 2 -10 -4 0 -17 18 -22 24 -6 3 8 12 15 21
15 14 0 20 12 16 33 -1 5 3 6 9 2 5 -3 15 6 20 20 5 14 14 24 18 21 5 -3 15 6
22 20 8 13 20 22 27 20 14 -6 47 60 37 75 -3 5 -2 9 3 8 25 -4 39 3 40 21 1
12 16 33 32 48 17 14 31 31 31 36 0 5 11 19 24 31 14 13 22 26 19 29 -4 3 -1
6 5 6 6 0 9 7 6 15 -4 8 -1 15 5 15 6 0 11 7 11 15 0 9 7 18 16 22 9 3 14 13
11 24 -3 11 -1 17 3 14 5 -3 12 11 16 32 4 21 9 32 11 26 8 -23 22 -13 22 15
0 40 12 92 21 87 11 -7 20 36 11 53 -4 7 -11 13 -14 13 -4 -1 -6 2 -4 7 1 4 5
6 10 4 4 -1 7 1 8 5 0 5 2 22 5 38 2 17 4 42 4 56 0 14 11 43 25 63 14 20 25
45 25 54 0 25 20 51 27 34 2 -6 9 -10 14 -6 5 3 9 0 9 -5 0 -6 8 -11 18 -11
10 0 24 -6 31 -12 11 -10 12 -10 7 -1 -5 9 -2 11 8 7 9 -3 16 -10 16 -14 0 -5
10 -12 23 -15 20 -6 49 -20 232 -105 33 -16 72 -31 87 -34 16 -4 27 -10 27
-14 -3 -20 2 -33 11 -27 6 3 10 2 10 -3 0 -6 11 -13 25 -16 14 -4 25 -11 25
-16 0 -6 6 -10 13 -10 8 0 24 -9 36 -19 13 -11 28 -22 34 -25 8 -3 7 -8 -3
-16 -12 -9 -10 -10 9 -5 16 5 21 4 17 -4 -4 -6 0 -11 9 -11 9 0 14 -4 11 -8
-3 -5 5 -8 17 -7 15 1 21 8 19 20 -2 11 2 15 10 12 7 -2 12 -14 10 -26 -1 -18
2 -22 20 -19 19 3 37 38 18 38 -13 0 -20 43 -9 56 7 8 2 15 -19 22 -26 9 -30
16 -36 61 l-7 51 -40 0 c-22 0 -42 5 -44 13 -27 72 15 150 55 102 12 -14 15
-14 30 0 9 8 21 15 27 15 12 0 153 -73 191 -98 15 -11 56 -38 92 -60 l65 -42
3 54 c2 46 -2 64 -29 111 -25 45 -31 67 -30 108 0 29 -8 81 -18 117 -21 71
-41 174 -41 208 0 24 30 92 40 92 12 0 40 103 36 130 -8 61 -29 108 -66 150
-22 25 -40 51 -40 59 0 11 -3 11 -15 1 -16 -13 -225 -353 -225 -366 0 -7 152
-244 227 -354 l23 -35 -86 -3 c-105 -3 -97 -9 -189 142 -38 63 -72 115 -75
115 -3 0 -37 -57 -76 -127 l-71 -127 -149 -3 -150 -3 -18 58 c-10 32 -25 70
-32 86 l-15 27 -139 0 -139 0 -21 -57 c-45 -126 -31 -113 -132 -113 -68 0 -89
3 -85 13 55 129 115 279 137 342 15 44 56 157 91 251 l64 170 79 -2 80 -2 11
-34 c18 -61 260 -658 266 -658 7 0 199 316 199 328 0 10 -28 54 -136 217 -104
156 -109 162 -128 146 -14 -12 -13 -15 3 -39 104 -153 131 -205 111 -217 -6
-4 -7 1 -3 11 4 12 3 15 -5 10 -14 -9 -57 19 -99 64 -17 19 -54 59 -82 89 -28
29 -48 57 -45 62 3 5 -1 12 -9 15 -9 3 -18 16 -21 28 -11 44 -55 86 -106 101
-3 1 -22 9 -43 18 -21 9 -44 14 -52 11 -9 -4 -15 0 -15 10 0 9 -8 16 -20 16
-10 0 -23 7 -28 16 -5 8 -31 39 -58 67 -28 29 -89 97 -136 152 -316 371 -755
552 -1233 508z m125 -95 c0 -25 -3 -29 -10 -18 -13 20 -13 50 0 50 6 0 10 -15
10 -32z m140 -98 c418 -44 790 -324 973 -733 40 -89 86 -234 87 -271 0 -20
-34 22 -52 64 -58 139 -93 208 -101 203 -6 -3 -7 -1 -3 5 8 13 -42 112 -56
112 -5 0 -7 4 -4 9 3 5 -7 24 -23 42 -16 18 -27 37 -25 41 3 4 -6 12 -20 18
-16 6 -24 15 -20 24 3 8 -3 19 -16 26 -11 6 -18 15 -15 20 3 4 -5 6 -17 3 -16
-3 -19 -2 -10 4 14 11 -20 49 -35 40 -5 -3 -15 4 -23 16 -12 21 -12 21 6 8 10
-7 -3 7 -31 33 -27 25 -55 46 -61 46 -6 0 -17 7 -24 15 -7 8 -18 15 -24 15 -6
0 -4 -5 4 -10 9 -6 10 -10 3 -10 -17 0 -25 17 -12 26 15 9 -17 35 -34 28 -7
-2 -24 4 -38 13 -104 71 -122 81 -137 76 -10 -4 -13 -2 -8 5 7 11 -11 16 -51
15 -7 -1 -10 3 -8 8 3 4 -11 11 -32 14 -21 4 -60 13 -88 21 -27 8 -87 18 -132
21 l-83 6 0 -373 0 -372 44 -49 c172 -191 127 -504 -87 -608 -78 -39 -170 -52
-319 -49 l-117 3 -7 388 -6 387 163 -6 c114 -5 182 -12 224 -25 32 -10 59 -17
60 -16 0 1 -1 163 -3 361 l-3 359 -87 -6 c-309 -21 -641 -221 -824 -497 -75
-114 -90 -151 -97 -244 l-6 -79 -170 -1 -170 -1 -3 -72 -3 -73 164 0 164 0 1
-75 0 -75 -164 0 -164 0 0 -85 0 -85 180 0 180 0 0 -80 0 -80 -262 0 -263 0 0
372 c0 205 -2 380 -5 388 -4 13 24 15 226 12 l230 -3 38 74 c228 457 689 710
1196 657z m190 -105 c0 -3 -2 -5 -5 -5 -3 0 -5 2 -5 5 0 3 2 5 5 5 3 0 5 -2 5
-5z m130 -50 c0 -3 -2 -5 -5 -5 -3 0 -5 2 -5 5 0 3 2 5 5 5 3 0 5 -2 5 -5z m0
-20 c0 -3 -2 -5 -5 -5 -3 0 -5 2 -5 5 0 3 2 5 5 5 3 0 5 -2 5 -5z m-110 -68
c0 -8 24 -18 60 -26 56 -13 60 -15 60 -42 0 -22 5 -29 20 -29 10 0 23 -6 27
-14 11 -18 53 -40 53 -26 0 5 10 10 23 10 16 0 18 -3 8 -9 -11 -7 -9 -11 8
-20 14 -8 21 -8 21 -1 0 21 18 9 25 -17 8 -35 23 -53 38 -47 9 3 12 -16 12
-63 0 -85 -34 -129 -92 -120 -26 5 -33 2 -33 -10 0 -13 -5 -12 -24 6 -14 14
-22 30 -19 40 3 9 1 12 -4 6 -21 -25 -88 5 -88 40 0 14 -92 44 -140 45 -22 1
-34 4 -27 7 17 7 15 50 -3 57 -9 3 -15 19 -15 41 0 19 -5 35 -11 35 -8 0 -9
-25 -5 -82 l7 -83 -26 30 c-15 19 -24 41 -24 60 1 17 3 22 6 13 11 -42 18 -12
15 66 -3 78 -2 85 17 91 12 3 21 13 21 21 0 9 11 14 35 14 19 0 35 5 35 10 0
6 5 10 10 10 6 0 10 -6 10 -13z m-105 -7 c-3 -5 -11 -10 -16 -10 -6 0 -7 5 -4
10 3 6 11 10 16 10 6 0 7 -4 4 -10z m395 6 c0 -2 -7 -7 -16 -10 -8 -3 -12 -2
-9 4 6 10 25 14 25 6z m-872 -64 c27 5 29 -84 3 -121 -12 -16 -21 -34 -21 -40
0 -6 -17 -11 -39 -11 -31 0 -40 -4 -46 -22 -6 -20 -8 -20 -12 -5 -6 23 -15 22
-49 -10 -23 -21 -30 -24 -32 -11 -3 13 -10 12 -44 -10 -25 -17 -35 -28 -26
-30 10 -2 -3 -21 -39 -55 -57 -55 -78 -112 -52 -143 9 -11 8 -14 -2 -14 -11 0
-11 -2 1 -10 8 -5 11 -10 5 -10 -7 0 -7 -3 0 -8 24 -18 35 -50 20 -62 -8 -7
-15 -23 -15 -36 0 -26 15 -32 24 -11 3 6 3 -3 0 -20 -3 -21 -1 -33 5 -33 6 0
11 -5 11 -11 0 -5 -5 -7 -12 -3 -7 4 -1 -8 12 -27 l23 -34 -36 34 c-20 19 -34
38 -31 43 3 5 0 7 -8 6 -7 -2 -12 5 -12 14 1 10 -2 16 -6 13 -4 -2 -16 5 -26
17 -17 19 -17 21 -2 15 10 -3 20 -2 23 2 2 5 -4 11 -14 14 -11 3 -22 17 -26
36 -4 18 -20 41 -36 53 -26 19 -43 48 -20 33 5 -3 12 -1 15 4 4 5 1 13 -5 17
-9 5 -7 11 6 21 18 12 18 13 -1 13 -13 0 -20 7 -20 20 0 11 4 20 9 20 4 0 5 6
1 13 -5 8 -2 7 9 -2 15 -12 17 -12 11 3 -3 9 -1 16 5 16 6 0 11 5 11 11 0 6
-7 9 -15 5 -20 -7 -20 51 0 90 11 22 15 25 15 10 0 -18 2 -18 24 3 14 13 29
20 35 16 6 -3 18 0 26 7 38 34 42 36 78 46 29 8 19 21 -20 24 -38 4 -38 4 -12
15 15 6 29 21 32 32 5 22 37 37 167 81 83 28 85 29 88 9 2 -12 10 -18 20 -17z
m972 -27 c0 -3 -2 -5 -5 -5 -3 0 -5 2 -5 5 0 3 2 5 5 5 3 0 5 -2 5 -5z m20
-20 c0 -3 -2 -5 -5 -5 -3 0 -5 2 -5 5 0 3 2 5 5 5 3 0 5 -2 5 -5z m-120 -20
c0 -3 -2 -5 -5 -5 -3 0 -5 2 -5 5 0 3 2 5 5 5 3 0 5 -2 5 -5z m70 0 c0 -3 -2
-5 -5 -5 -3 0 -5 2 -5 5 0 3 2 5 5 5 3 0 5 -2 5 -5z m-1276 -51 c10 -26 7 -34
-15 -34 -11 0 -17 5 -14 10 3 6 1 10 -6 10 -8 0 -8 4 1 15 16 19 26 19 34 -1z
m1386 11 c0 -3 -2 -5 -5 -5 -3 0 -5 2 -5 5 0 3 2 5 5 5 3 0 5 -2 5 -5z m57
-72 c-4 -3 -7 0 -7 7 0 7 3 10 7 7 3 -4 3 -10 0 -14z m-137 -28 c0 -14 -4 -25
-9 -25 -4 0 -6 11 -3 25 2 14 6 25 8 25 2 0 4 -11 4 -25z m11 -88 c-8 -8 -11
-8 -11 0 0 6 -3 20 -7 30 -7 17 -6 17 11 0 14 -14 16 -21 7 -30z m-3111 -3 c0
-8 -19 -13 -24 -6 -3 5 1 9 9 9 8 0 15 -2 15 -3z m-40 -19 c0 -3 -2 -5 -5 -5
-3 0 -5 2 -5 5 0 3 2 5 5 5 3 0 5 -2 5 -5z m880 -30 c0 -3 -2 -5 -5 -5 -3 0
-5 2 -5 5 0 3 2 5 5 5 3 0 5 -2 5 -5z m-403 -62 c-4 -3 -7 0 -7 7 0 7 3 10 7
7 3 -4 3 -10 0 -14z m1143 -315 c0 -244 2 -308 12 -308 7 -1 69 -2 138 -3
l125 -2 0 -75 0 -75 -222 -3 -223 -2 0 383 c0 211 3 387 7 391 4 4 42 5 86 4
l78 -3 -1 -307z m1201 290 c26 -51 204 -338 209 -338 4 0 53 81 111 180 l104
179 78 1 77 0 0 -390 0 -391 -81 3 -82 3 2 233 c2 213 -4 267 -23 217 -9 -24
-180 -295 -186 -295 -5 0 -152 219 -186 278 -10 17 -21 32 -24 32 -3 0 -4
-106 -2 -235 l4 -235 -84 0 -83 0 0 390 0 390 77 0 c70 0 78 -2 89 -22z
m-1171 7 c0 -3 -2 -5 -5 -5 -3 0 -5 2 -5 5 0 3 2 5 5 5 3 0 5 -2 5 -5z m2610
-260 c0 -3 -2 -5 -5 -5 -3 0 -5 2 -5 5 0 3 2 5 5 5 3 0 5 -2 5 -5z m-1220
-380 c0 -3 -2 -5 -5 -5 -3 0 -5 2 -5 5 0 3 2 5 5 5 3 0 5 -2 5 -5z m17 -32
c-4 -3 -10 -3 -14 0 -3 4 0 7 7 7 7 0 10 -3 7 -7z m39 -27 c8 -8 14 -19 14
-25 0 -5 16 -18 35 -27 21 -10 35 -23 35 -35 0 -12 5 -16 15 -13 9 4 26 -4 39
-17 13 -13 30 -29 38 -34 7 -6 36 -29 64 -53 27 -23 58 -42 68 -42 9 0 14 -4
11 -10 -3 -5 -2 -10 4 -10 5 0 12 6 14 13 4 9 7 9 14 0 5 -8 19 13 38 58 24
57 33 69 52 69 28 0 25 -20 -16 -115 -150 -343 -417 -587 -769 -705 -211 -70
-240 -44 -40 36 107 42 159 76 138 89 -19 12 -10 25 13 20 12 -4 34 -2 49 4
18 7 29 6 39 -2 10 -10 11 -9 2 3 -10 14 -1 60 12 60 4 0 3 -5 0 -10 -3 -6 2
-18 11 -28 17 -16 18 -16 11 0 -4 12 1 21 16 29 21 12 21 11 7 -7 -14 -18 -14
-18 3 -5 9 7 17 20 17 27 0 12 19 19 43 15 4 0 7 4 7 10 0 6 7 9 15 6 8 -4 24
6 40 24 14 17 25 28 25 25 0 -3 9 2 19 11 11 9 17 21 14 26 -3 6 -1 7 4 4 6
-4 36 22 67 58 54 61 55 64 27 54 -18 -6 -28 -16 -24 -22 3 -5 1 -7 -5 -3 -6
3 -57 -11 -114 -32 -257 -97 -525 -150 -541 -108 -4 10 16 18 81 30 216 41
326 74 507 151 106 45 145 67 139 77 -4 6 -3 9 2 5 5 -3 18 2 29 10 19 15 19
15 1 9 -16 -5 -17 -4 -6 9 7 9 10 18 7 22 -4 3 -1 15 5 27 11 20 10 21 -9 3
-18 -16 -21 -16 -26 -3 -4 9 -12 14 -19 11 -7 -2 -38 -6 -68 -9 -30 -3 -56
-10 -58 -16 -6 -17 -22 -11 -23 8 0 13 -2 14 -6 2 -9 -24 -23 -28 -56 -19 -21
6 -33 5 -38 -2 -3 -6 -9 1 -13 15 -3 14 -11 26 -16 26 -6 0 -10 5 -10 11 0 5
4 8 9 5 5 -3 11 4 14 16 4 15 3 18 -5 10 -17 -17 -41 18 -25 36 6 8 7 16 1 20
-5 4 -9 13 -10 20 -3 37 -5 42 -18 42 -22 0 -25 22 -7 49 8 13 16 31 18 40 1
9 7 17 12 19 6 2 11 11 11 19 0 9 6 13 14 10 8 -3 17 1 20 9 7 18 14 18 32 0z
m-671 -168 c4 -57 5 -167 3 -246 -3 -141 -3 -143 20 -149 27 -6 28 -15 2 -38
-21 -19 -101 -23 -155 -7 l-30 10 45 21 c25 11 52 21 60 21 13 0 15 32 15 228
0 125 3 235 7 245 16 39 26 12 33 -85z m-1104 -10 c53 -116 82 -158 98 -145
14 10 14 10 3 -5 -15 -19 28 -76 48 -63 6 3 9 1 8 -5 -12 -49 445 -208 675
-235 31 -4 57 -9 57 -10 0 -70 -253 -27 -569 97 -68 27 -128 47 -133 46 -24
-8 274 -278 307 -278 4 0 13 -7 21 -15 9 -8 21 -15 27 -15 7 0 6 4 -3 10 -8 5
-10 10 -5 10 6 0 20 -7 32 -15 12 -8 30 -12 40 -9 16 6 16 5 -2 -10 -19 -15
-19 -16 -1 -9 15 5 17 3 11 -7 -6 -10 -4 -12 8 -7 8 3 25 -3 38 -14 21 -18 39
-23 67 -20 6 1 12 -3 12 -8 0 -6 7 -7 17 -4 11 4 14 3 9 -5 -4 -7 9 -15 36
-22 73 -19 91 -26 142 -59 28 -17 47 -31 44 -31 -124 0 -403 106 -568 215
-197 131 -393 386 -471 613 l-18 52 23 0 c18 0 28 -12 47 -52z m1424 -22 c22
-17 42 -34 45 -37 6 -7 62 -23 73 -21 4 1 7 -7 7 -18 0 -11 5 -20 10 -20 6 0
10 7 10 16 0 14 2 15 17 3 9 -8 28 -15 42 -15 40 -3 41 -3 41 -18 0 -8 10 -18
23 -22 34 -10 38 -26 12 -46 -15 -12 -21 -25 -18 -38 5 -17 0 -20 -33 -20 -20
0 -45 -7 -55 -16 -17 -15 -75 -27 -136 -27 -21 0 -33 -6 -33 -14 0 -30 -89
-13 -128 24 -7 7 -23 15 -35 18 -26 7 -57 56 -57 91 0 15 -6 24 -15 24 -25 0
-17 18 13 28 15 6 21 11 13 11 -9 1 -3 11 15 28 16 15 28 31 26 35 -1 5 13 15
32 23 20 8 40 24 46 35 12 23 29 19 85 -24z m255 29 c0 -3 -2 -5 -5 -5 -3 0
-5 2 -5 5 0 3 2 5 5 5 3 0 5 -2 5 -5z m-380 -10 c0 -3 -2 -5 -5 -5 -3 0 -5 2
-5 5 0 3 2 5 5 5 3 0 5 -2 5 -5z m810 -50 c0 -3 -2 -5 -5 -5 -3 0 -5 2 -5 5 0
3 2 5 5 5 3 0 5 -2 5 -5z m-2050 -20 c0 -3 -2 -5 -5 -5 -3 0 -5 2 -5 5 0 3 2
5 5 5 3 0 5 -2 5 -5z m271 -6 c11 -5 16 -15 13 -21 -4 -7 -3 -8 5 -4 6 4 9 11
6 16 -3 4 4 6 15 3 11 -3 18 -9 15 -13 -2 -4 16 -8 40 -8 25 -1 45 2 45 7 0 5
31 9 68 9 37 1 80 6 95 11 19 8 49 8 95 1 37 -5 93 -12 125 -16 31 -3 55 -9
52 -14 -3 -5 10 -16 30 -26 19 -9 32 -20 29 -25 -3 -5 -9 -7 -14 -4 -5 3 -11
1 -15 -5 -3 -5 3 -10 14 -10 32 0 25 -18 -9 -25 -31 -7 -39 -20 -17 -29 19 -8
-20 -35 -62 -42 -20 -4 -41 -11 -48 -16 -26 -21 -255 14 -287 43 -11 11 -27
20 -35 21 -23 2 -34 4 -51 11 -8 3 -36 11 -62 18 -27 7 -48 18 -48 25 0 6 -16
19 -35 30 -45 24 -52 74 -9 74 14 0 34 -5 45 -11z m-261 -14 c0 -3 -2 -5 -5
-5 -3 0 -5 2 -5 5 0 3 2 5 5 5 3 0 5 -2 5 -5z m910 -40 c0 -3 -2 -5 -5 -5 -3
0 -5 2 -5 5 0 3 2 5 5 5 3 0 5 -2 5 -5z m720 0 c0 -3 -2 -5 -5 -5 -3 0 -5 2
-5 5 0 3 2 5 5 5 3 0 5 -2 5 -5z m-573 -32 c-4 -3 -7 0 -7 7 0 7 3 10 7 7 3
-4 3 -10 0 -14z m-957 2 c0 -3 -2 -5 -5 -5 -3 0 -5 2 -5 5 0 3 2 5 5 5 3 0 5
-2 5 -5z m1860 -20 c0 -3 -2 -5 -5 -5 -3 0 -5 2 -5 5 0 3 2 5 5 5 3 0 5 -2 5
-5z m300 -10 c0 -3 -2 -5 -5 -5 -3 0 -5 2 -5 5 0 3 2 5 5 5 3 0 5 -2 5 -5z
m30 -15 c0 -11 -2 -20 -4 -20 -2 0 -6 9 -9 20 -3 11 -1 20 4 20 5 0 9 -9 9
-20z m100 5 c0 -3 -2 -5 -5 -5 -3 0 -5 2 -5 5 0 3 2 5 5 5 3 0 5 -2 5 -5z
m840 -10 c0 -3 -2 -5 -5 -5 -3 0 -5 2 -5 5 0 3 2 5 5 5 3 0 5 -2 5 -5z m-970
-20 c0 -8 5 -15 10 -15 17 0 11 -16 -14 -43 -13 -14 -27 -39 -31 -56 -3 -16
-13 -35 -21 -42 -8 -6 -14 -17 -14 -24 0 -7 -10 -23 -22 -36 -13 -14 -39 -45
-58 -69 -56 -70 -192 -202 -250 -242 -87 -61 -160 -107 -181 -113 -13 -4 -38
-16 -54 -26 -36 -21 -56 -13 -60 25 -3 22 -1 25 10 16 16 -13 39 -4 30 11 -4
5 4 9 17 9 13 0 29 9 36 20 12 20 42 28 42 11 0 -5 6 -11 14 -14 9 -4 12 0 9
11 -2 10 9 32 26 51 17 19 31 31 31 27 0 -5 7 -3 15 4 8 6 19 9 26 5 8 -5 9
-1 4 15 -6 20 -4 22 14 17 21 -5 131 93 145 130 3 7 13 13 23 13 17 0 59 56
55 73 -3 12 36 8 41 -5 4 -8 6 -7 6 4 1 9 7 18 14 21 6 2 4 3 -5 2 -14 -2 -15
0 -5 16 6 10 17 19 24 19 7 0 13 8 13 18 1 16 2 16 14 -1 14 -18 15 -17 21 4
4 12 3 24 -4 28 -16 10 -2 48 20 54 15 4 18 11 12 38 -5 25 -2 35 12 46 24 17
35 17 35 -2z m140 0 c0 -3 -2 -5 -5 -5 -3 0 -5 2 -5 5 0 3 2 5 5 5 3 0 5 -2 5
-5z m810 -60 c0 -3 -2 -5 -5 -5 -3 0 -5 2 -5 5 0 3 2 5 5 5 3 0 5 -2 5 -5z
m-2523 -21 c-3 -3 -12 -4 -19 -1 -8 3 -5 6 6 6 11 1 17 -2 13 -5z m1213 -19
c0 -3 -2 -5 -5 -5 -3 0 -5 2 -5 5 0 3 2 5 5 5 3 0 5 -2 5 -5z m-754 -94 c74
-45 119 -231 57 -231 -71 0 -132 80 -133 172 0 72 24 91 76 59z m-123 -30 c27
8 27 7 27 -44 0 -90 71 -177 143 -177 27 0 29 -2 22 -27 -10 -42 -43 -82 -87
-104 -57 -29 -80 -23 -94 27 -36 126 -104 182 -207 172 -36 -3 -37 2 -11 84
23 72 49 87 121 73 32 -7 70 -8 86 -4z m714 -38 c-4 -3 -10 -3 -14 0 -3 4 0 7
7 7 7 0 10 -3 7 -7z m-17 -18 c0 -3 -2 -5 -5 -5 -3 0 -5 2 -5 5 0 3 2 5 5 5 3
0 5 -2 5 -5z m-130 -30 c0 -3 -2 -5 -5 -5 -3 0 -5 2 -5 5 0 3 2 5 5 5 3 0 5
-2 5 -5z m-43 -42 c-4 -3 -7 0 -7 7 0 7 3 10 7 7 3 -4 3 -10 0 -14z m-47 3 c0
-2 2 -11 5 -19 4 -8 -1 -14 -12 -14 -20 0 -35 16 -27 29 5 8 34 11 34 4z
m-568 -67 c38 -20 114 -167 96 -185 -13 -12 -82 11 -132 44 -77 50 -124 143
-78 156 23 6 90 -2 114 -15z m611 -286 c-24 -8 -26 -8 -29 9 -2 15 1 16 19 6
13 -7 17 -13 10 -15z m-43 12 c0 -3 -2 -5 -5 -5 -3 0 -5 2 -5 5 0 3 2 5 5 5 3
0 5 -2 5 -5z m-23 -22 c-4 -3 -10 -3 -14 0 -3 4 0 7 7 7 7 0 10 -3 7 -7z m-57
-18 c0 -3 -2 -5 -5 -5 -3 0 -5 2 -5 5 0 3 2 5 5 5 3 0 5 -2 5 -5z m-80 -80 c0
-3 -2 -5 -5 -5 -3 0 -5 2 -5 5 0 3 2 5 5 5 3 0 5 -2 5 -5z m-22 -17 c-6 -18
-45 -21 -233 -19 -108 0 -92 7 34 14 57 3 106 9 109 12 11 11 94 5 90 -7z
m-318 -13 c0 -3 -2 -5 -5 -5 -3 0 -5 2 -5 5 0 3 2 5 5 5 3 0 5 -2 5 -5z m90
-25 c0 -5 -5 -10 -11 -10 -5 0 -7 5 -4 10 3 6 8 10 11 10 2 0 4 -4 4 -10z
m367 3 c-4 -3 -10 -3 -14 0 -3 4 0 7 7 7 7 0 10 -3 7 -7z m-450 -20 c-4 -3
-10 -3 -14 0 -3 4 0 7 7 7 7 0 10 -3 7 -7z m53 -8 c0 -3 -2 -5 -5 -5 -3 0 -5
2 -5 5 0 3 2 5 5 5 3 0 5 -2 5 -5z m297 -87 c-3 -8 -6 -5 -6 6 -1 11 2 17 5
13 3 -3 4 -12 1 -19z m20 -5 c-4 -3 -7 0 -7 7 0 7 3 10 7 7 3 -4 3 -10 0 -14z
m-17 -18 c0 -3 -2 -5 -5 -5 -3 0 -5 2 -5 5 0 3 2 5 5 5 3 0 5 -2 5 -5z"/>
<path d="M2984 3586 c11 -9 24 -16 30 -16 12 0 7 5 -24 19 -24 11 -24 11 -6
-3z"/>
<path d="M3110 3505 c0 -3 2 -5 5 -5 3 0 5 2 5 5 0 3 -2 5 -5 5 -3 0 -5 -2 -5
-5z"/>
<path d="M3330 3285 c0 -3 2 -5 5 -5 3 0 5 2 5 5 0 3 -2 5 -5 5 -3 0 -5 -2 -5
-5z"/>
<path d="M2142 2674 l3 -239 64 2 c156 4 231 82 231 237 0 139 -81 222 -224
233 l-76 6 2 -239z"/>
<path d="M2790 3395 c0 -3 2 -5 5 -5 3 0 5 2 5 5 0 3 -2 5 -5 5 -3 0 -5 -2 -5
-5z"/>
<path d="M3025 3170 c-3 -5 -1 -10 4 -10 6 0 11 5 11 10 0 6 -2 10 -4 10 -3 0
-8 -4 -11 -10z"/>
<path d="M1930 3395 c0 -3 2 -5 5 -5 3 0 5 2 5 5 0 3 -2 5 -5 5 -3 0 -5 -2 -5
-5z"/>
<path d="M1960 3335 c7 -8 16 -15 21 -15 5 0 9 7 9 15 0 9 -9 15 -21 15 -18 0
-19 -2 -9 -15z"/>
<path d="M1920 3315 c0 -3 2 -5 5 -5 3 0 5 2 5 5 0 3 -2 5 -5 5 -3 0 -5 -2 -5
-5z"/>
<path d="M1955 3299 c-4 -6 -5 -12 -2 -15 2 -3 7 2 10 11 7 17 1 20 -8 4z"/>
<path d="M1925 3280 c-3 -5 -1 -10 4 -10 6 0 11 5 11 10 0 6 -2 10 -4 10 -3 0
-8 -4 -11 -10z"/>
<path d="M1750 3000 c0 -7 3 -10 7 -7 3 4 3 10 0 14 -4 3 -7 0 -7 -7z"/>
<path d="M1831 2884 c0 -11 3 -14 6 -6 3 7 2 16 -1 19 -3 4 -6 -2 -5 -13z"/>
<path d="M1843 2833 c4 -3 10 -3 14 0 3 4 0 7 -7 7 -7 0 -10 -3 -7 -7z"/>
<path d="M3230 2205 c0 -3 2 -5 5 -5 3 0 5 2 5 5 0 3 -2 5 -5 5 -3 0 -5 -2 -5
-5z"/>
<path d="M3410 2010 c0 -7 3 -10 7 -7 3 4 3 10 0 14 -4 3 -7 0 -7 -7z"/>
<path d="M2943 1533 c4 -3 10 -3 14 0 3 4 0 7 -7 7 -7 0 -10 -3 -7 -7z"/>
<path d="M2910 1515 c0 -3 2 -5 5 -5 3 0 5 2 5 5 0 3 -2 5 -5 5 -3 0 -5 -2 -5
-5z"/>
<path d="M1910 1535 c0 -3 2 -5 5 -5 3 0 5 2 5 5 0 3 -2 5 -5 5 -3 0 -5 -2 -5
-5z"/>
<path d="M2960 2030 c0 -5 5 -10 10 -10 6 0 10 5 10 10 0 6 -4 10 -10 10 -5 0
-10 -4 -10 -10z"/>
<path d="M2910 1885 c0 -3 2 -5 5 -5 3 0 5 2 5 5 0 3 -2 5 -5 5 -3 0 -5 -2 -5
-5z"/>
<path d="M1670 2075 c0 -3 2 -5 5 -5 3 0 5 2 5 5 0 3 -2 5 -5 5 -3 0 -5 -2 -5
-5z"/>
<path d="M1999 2067 c5 -5 26 -7 47 -5 l39 3 -47 5 c-26 3 -43 1 -39 -3z"/>
<path d="M1790 2045 c0 -3 2 -5 5 -5 3 0 5 2 5 5 0 3 -2 5 -5 5 -3 0 -5 -2 -5
-5z"/>
<path d="M3470 1635 c0 -3 2 -5 5 -5 3 0 5 2 5 5 0 3 -2 5 -5 5 -3 0 -5 -2 -5
-5z"/>
<path d="M3170 1375 c0 -3 2 -5 5 -5 3 0 5 2 5 5 0 3 -2 5 -5 5 -3 0 -5 -2 -5
-5z"/>
<path d="M3048 1313 c7 -3 16 -2 19 1 4 3 -2 6 -13 5 -11 0 -14 -3 -6 -6z"/>
<path d="M2900 1575 c0 -3 2 -5 5 -5 3 0 5 2 5 5 0 3 -2 5 -5 5 -3 0 -5 -2 -5
-5z"/>
<path d="M988 3913 c7 -3 16 -2 19 1 4 3 -2 6 -13 5 -11 0 -14 -3 -6 -6z"/>
<path d="M1030 3830 c0 -7 3 -10 7 -7 3 4 3 10 0 14 -4 3 -7 0 -7 -7z"/>
<path d="M963 3743 c4 -3 10 -3 14 0 3 4 0 7 -7 7 -7 0 -10 -3 -7 -7z"/>
<path d="M590 3605 c0 -3 2 -5 5 -5 3 0 5 2 5 5 0 3 -2 5 -5 5 -3 0 -5 -2 -5
-5z"/>
<path d="M4160 3605 c0 -3 2 -5 5 -5 3 0 5 2 5 5 0 3 -2 5 -5 5 -3 0 -5 -2 -5
-5z"/>
<path d="M400 3520 c0 -7 3 -10 7 -7 3 4 3 10 0 14 -4 3 -7 0 -7 -7z"/>
<path d="M640 3485 c0 -3 2 -5 5 -5 3 0 5 2 5 5 0 3 -2 5 -5 5 -3 0 -5 -2 -5
-5z"/>
<path d="M4690 3315 c0 -3 2 -5 5 -5 3 0 5 2 5 5 0 3 -2 5 -5 5 -3 0 -5 -2 -5
-5z"/>
<path d="M50 3305 c0 -3 2 -5 5 -5 3 0 5 2 5 5 0 3 -2 5 -5 5 -3 0 -5 -2 -5
-5z"/>
<path d="M360 3295 c0 -3 2 -5 5 -5 3 0 5 2 5 5 0 3 -2 5 -5 5 -3 0 -5 -2 -5
-5z"/>
<path d="M0 3260 c0 -7 3 -10 7 -7 3 4 3 10 0 14 -4 3 -7 0 -7 -7z"/>
<path d="M183 3243 c4 -3 10 -3 14 0 3 4 0 7 -7 7 -7 0 -10 -3 -7 -7z"/>
<path d="M730 3229 c0 -5 12 -9 27 -9 30 0 27 9 -6 15 -11 2 -21 0 -21 -6z"/>
<path d="M910 3227 c0 -8 6 -17 14 -20 9 -4 13 0 12 11 -3 20 -26 29 -26 9z
m20 -2 c0 -3 -2 -5 -5 -5 -3 0 -5 2 -5 5 0 3 2 5 5 5 3 0 5 -2 5 -5z"/>
<path d="M4310 3235 c0 -3 2 -5 5 -5 3 0 5 2 5 5 0 3 -2 5 -5 5 -3 0 -5 -2 -5
-5z"/>
<path d="M4340 3225 c0 -3 2 -5 5 -5 3 0 5 2 5 5 0 3 -2 5 -5 5 -3 0 -5 -2 -5
-5z"/>
<path d="M93 3213 c4 -3 10 -3 14 0 3 4 0 7 -7 7 -7 0 -10 -3 -7 -7z"/>
<path d="M343 3213 c4 -3 10 -3 14 0 3 4 0 7 -7 7 -7 0 -10 -3 -7 -7z"/>
<path d="M411 3210 c9 -5 28 -6 45 0 27 8 26 8 -16 9 -32 0 -40 -2 -29 -9z"/>
<path d="M630 3205 c0 -3 2 -5 5 -5 3 0 5 2 5 5 0 3 -2 5 -5 5 -3 0 -5 -2 -5
-5z"/>
<path d="M4678 3198 c5 -5 16 -8 23 -6 8 3 3 7 -10 11 -17 4 -21 3 -13 -5z"/>
<path d="M4333 3182 c-13 -2 -23 -8 -23 -14 0 -5 -7 -7 -16 -4 -8 3 -12 2 -9
-4 3 -6 -1 -10 -10 -10 -26 0 -43 -24 -38 -53 4 -18 1 -27 -8 -28 -8 -1 0 -5
16 -9 45 -11 110 -11 121 0 6 6 10 4 11 -8 2 -22 121 -222 132 -222 5 0 38 52
75 115 l68 115 54 0 c42 0 53 3 47 13 -4 6 -8 26 -8 42 -1 19 -6 29 -14 27 -8
-2 -11 3 -8 12 9 22 -45 38 -83 25 -28 -10 -41 -29 -20 -29 6 0 10 -4 10 -9 0
-5 -15 -8 -34 -7 -28 3 -33 0 -33 -18 -1 -37 -3 -42 -20 -43 -10 -1 -31 -4
-48 -7 -41 -7 -61 0 -61 24 0 11 4 20 8 20 4 0 -3 11 -16 25 -13 14 -28 25
-35 25 -6 0 -11 4 -11 9 0 12 -20 18 -47 13z m-3 -27 c0 -3 -2 -5 -5 -5 -3 0
-5 2 -5 5 0 3 2 5 5 5 3 0 5 -2 5 -5z m70 -10 c0 -3 -2 -5 -5 -5 -3 0 -5 2 -5
5 0 3 2 5 5 5 3 0 5 -2 5 -5z m330 -30 c0 -3 -2 -5 -5 -5 -3 0 -5 2 -5 5 0 3
2 5 5 5 3 0 5 -2 5 -5z m-140 -40 c0 -3 -2 -5 -5 -5 -3 0 -5 2 -5 5 0 3 2 5 5
5 3 0 5 -2 5 -5z m-113 -42 c-4 -3 -7 0 -7 7 0 7 3 10 7 7 3 -4 3 -10 0 -14z
m-27 -28 c0 -3 -2 -5 -5 -5 -3 0 -5 2 -5 5 0 3 2 5 5 5 3 0 5 -2 5 -5z m20
-20 c0 -3 -2 -5 -5 -5 -3 0 -5 2 -5 5 0 3 2 5 5 5 3 0 5 -2 5 -5z"/>
<path d="M4750 3155 c0 -3 2 -5 5 -5 3 0 5 2 5 5 0 3 -2 5 -5 5 -3 0 -5 -2 -5
-5z"/>
<path d="M4550 3095 c0 -3 2 -5 5 -5 3 0 5 2 5 5 0 3 -2 5 -5 5 -3 0 -5 -2 -5
-5z"/>
<path d="M4220 3085 c0 -3 2 -5 5 -5 3 0 5 2 5 5 0 3 -2 5 -5 5 -3 0 -5 -2 -5
-5z"/>
<path d="M4453 3073 c4 -3 10 -3 14 0 3 4 0 7 -7 7 -7 0 -10 -3 -7 -7z"/>
<path d="M4180 3065 c0 -3 2 -5 5 -5 3 0 5 2 5 5 0 3 -2 5 -5 5 -3 0 -5 -2 -5
-5z"/>
<path d="M3857 2840 c-11 -26 -87 -243 -87 -247 0 -2 41 -3 90 -3 50 0 90 1
90 3 0 2 -14 41 -31 88 -17 46 -37 104 -44 129 -8 28 -15 39 -18 30z"/>
<path d="M40 2305 c0 -3 2 -5 5 -5 3 0 5 2 5 5 0 3 -2 5 -5 5 -3 0 -5 -2 -5
-5z"/>
<path d="M630 2215 c0 -3 2 -5 5 -5 3 0 5 2 5 5 0 3 -2 5 -5 5 -3 0 -5 -2 -5
-5z"/>
<path d="M3870 2075 c0 -3 2 -5 5 -5 3 0 5 2 5 5 0 3 -2 5 -5 5 -3 0 -5 -2 -5
-5z"/>
<path d="M700 1965 c0 -3 2 -5 5 -5 3 0 5 2 5 5 0 3 -2 5 -5 5 -3 0 -5 -2 -5
-5z"/>
<path d="M510 1905 c0 -3 2 -5 5 -5 3 0 5 2 5 5 0 3 -2 5 -5 5 -3 0 -5 -2 -5
-5z"/>
<path d="M4720 1890 c0 -7 3 -10 7 -7 3 4 3 10 0 14 -4 3 -7 0 -7 -7z"/>
<path d="M560 1845 c0 -3 2 -5 5 -5 3 0 5 2 5 5 0 3 -2 5 -5 5 -3 0 -5 -2 -5
-5z"/>
<path d="M640 1795 c0 -3 2 -5 5 -5 3 0 5 2 5 5 0 3 -2 5 -5 5 -3 0 -5 -2 -5
-5z"/>
<path d="M4630 1795 c0 -3 2 -5 5 -5 3 0 5 2 5 5 0 3 -2 5 -5 5 -3 0 -5 -2 -5
-5z"/>
<path d="M755 1730 c-3 -5 0 -10 9 -10 8 0 17 -6 19 -12 4 -10 6 -10 6 -1 1 9
8 10 24 4 12 -4 33 -4 47 0 21 6 18 7 -17 8 -23 1 -45 6 -48 11 -3 6 -12 10
-20 10 -8 0 -17 -4 -20 -10z"/>
<path d="M730 1725 c0 -3 2 -5 5 -5 3 0 5 2 5 5 0 3 -2 5 -5 5 -3 0 -5 -2 -5
-5z"/>
<path d="M963 1723 c4 -3 10 -3 14 0 3 4 0 7 -7 7 -7 0 -10 -3 -7 -7z"/>
<path d="M845 1690 c-3 -5 1 -10 9 -10 9 0 16 5 16 10 0 6 -4 10 -9 10 -6 0
-13 -4 -16 -10z"/>
<path d="M820 1685 c0 -3 2 -5 5 -5 3 0 5 2 5 5 0 3 -2 5 -5 5 -3 0 -5 -2 -5
-5z"/>
<path d="M883 1673 c4 -3 10 -3 14 0 3 4 0 7 -7 7 -7 0 -10 -3 -7 -7z"/>
<path d="M858 1588 c9 -9 15 -9 24 0 9 9 7 12 -12 12 -19 0 -21 -3 -12 -12z"/>
<path d="M3310 1235 c0 -3 2 -5 5 -5 3 0 5 2 5 5 0 3 -2 5 -5 5 -3 0 -5 -2 -5
-5z"/>
<path d="M3283 1173 c4 -3 10 -3 14 0 3 4 0 7 -7 7 -7 0 -10 -3 -7 -7z"/>
<path d="M1985 1160 c3 -5 8 -10 11 -10 2 0 4 5 4 10 0 6 -5 10 -11 10 -5 0
-7 -4 -4 -10z"/>
<path d="M3233 1155 c0 -8 4 -15 7 -15 4 0 13 7 20 15 10 12 9 15 -7 15 -11 0
-20 -7 -20 -15z"/>
<path d="M3190 1155 c0 -3 2 -5 5 -5 3 0 5 2 5 5 0 3 -2 5 -5 5 -3 0 -5 -2 -5
-5z"/>
<path d="M3185 1130 c-3 -5 -1 -10 4 -10 6 0 11 5 11 10 0 6 -2 10 -4 10 -3 0
-8 -4 -11 -10z"/>
<path d="M3190 1100 c0 -7 3 -10 7 -7 3 4 3 10 0 14 -4 3 -7 0 -7 -7z"/>
<path d="M2076 1085 c-3 -8 -1 -15 4 -15 6 0 10 7 10 15 0 8 -2 15 -4 15 -2 0
-6 -7 -10 -15z"/>
<path d="M3143 1093 c4 -3 10 -3 14 0 3 4 0 7 -7 7 -7 0 -10 -3 -7 -7z"/>
<path d="M2105 1050 c3 -5 8 -10 11 -10 2 0 4 5 4 10 0 6 -5 10 -11 10 -5 0
-7 -4 -4 -10z"/>
<path d="M3074 1048 c-4 -7 -3 -8 4 -4 12 7 16 16 8 16 -3 0 -8 -5 -12 -12z"/>
<path d="M3018 1043 c7 -3 16 -2 19 1 4 3 -2 6 -13 5 -11 0 -14 -3 -6 -6z"/>
<path d="M2163 1023 c4 -3 10 -3 14 0 3 4 0 7 -7 7 -7 0 -10 -3 -7 -7z"/>
<path d="M2190 1020 c0 -5 5 -10 10 -10 6 0 10 5 10 10 0 6 -4 10 -10 10 -5 0
-10 -4 -10 -10z"/>
<path d="M2930 1020 c-11 -7 -6 -10 20 -10 26 0 31 3 20 10 -8 5 -17 10 -20
10 -3 0 -12 -5 -20 -10z"/>
<path d="M2890 1009 c0 -5 5 -7 10 -4 6 3 10 8 10 11 0 2 -4 4 -10 4 -5 0 -10
-5 -10 -11z"/>
<path d="M3010 1015 c0 -3 2 -5 5 -5 3 0 5 2 5 5 0 3 -2 5 -5 5 -3 0 -5 -2 -5
-5z"/>
<path d="M2956 985 c4 -8 8 -15 10 -15 2 0 4 7 4 15 0 8 -4 15 -10 15 -5 0 -7
-7 -4 -15z"/>
<path d="M2900 985 c0 -3 2 -5 5 -5 3 0 5 2 5 5 0 3 -2 5 -5 5 -3 0 -5 -2 -5
-5z"/>
<path d="M2920 925 c0 -3 2 -5 5 -5 3 0 5 2 5 5 0 3 -2 5 -5 5 -3 0 -5 -2 -5
-5z"/>
<path d="M2640 905 c0 -3 2 -5 5 -5 3 0 5 2 5 5 0 3 -2 5 -5 5 -3 0 -5 -2 -5
-5z"/>
<path d="M4243 813 c4 -3 10 -3 14 0 3 4 0 7 -7 7 -7 0 -10 -3 -7 -7z"/>
<path d="M3950 595 c0 -3 2 -5 5 -5 3 0 5 2 5 5 0 3 -2 5 -5 5 -3 0 -5 -2 -5
-5z"/>
<path d="M3930 585 c0 -3 2 -5 5 -5 3 0 5 2 5 5 0 3 -2 5 -5 5 -3 0 -5 -2 -5
-5z"/>
<path d="M3550 525 c0 -3 2 -5 5 -5 3 0 5 2 5 5 0 3 -2 5 -5 5 -3 0 -5 -2 -5
-5z"/>
<path d="M3928 523 c6 -2 18 -2 25 0 6 3 1 5 -13 5 -14 0 -19 -2 -12 -5z"/>
</g>
</svg>
