<svg xmlns="http://www.w3.org/2000/svg" viewBox="0 0 450 629" width="450" height="629">
<defs>
  <marker id="arrow" viewBox="0 0 10 10" refX="6" refY="5" markerWidth="6" markerHeight="6" orient="auto-start-reverse">
    <path d="M 0 1 L 10 5 L 0 9 z" fill="#000000"/>
  </marker>
</defs>
<rect width="450" height="629" fill="#ffffff"/>
<line x1="200.0" y1="10.0" x2="200.0" y2="614" stroke="#333333" stroke-width="1.5"/>
<line x1="10.0" y1="35.0" x2="390.0" y2="35.0" stroke="#333333" stroke-width="1.5"/>
<text x="100.0" y="27.5" font-family="Arial, sans-serif" font-size="13" font-weight="bold" fill="#000000" text-anchor="middle">Client</text>
<text x="300.0" y="27.5" font-family="Arial, sans-serif" font-size="13" font-weight="bold" fill="#000000" text-anchor="middle">System</text>
<circle cx="100.0" cy="62.0" r="12.0" fill="#000000"/>
<rect x="30.0" y="100.0" width="140.0" height="50.0" rx="8" ry="8" fill="#ffffff" stroke="#000000" stroke-width="1.5"/>
<text x="100.0" y="122.0" font-family="Arial, sans-serif" font-size="10" fill="#000000" text-anchor="middle">Membuka Menu Kelola</text>
<text x="100.0" y="135.0" font-family="Arial, sans-serif" font-size="10" fill="#000000" text-anchor="middle">Pengguna /admin/users</text>
<rect x="230.0" y="180.0" width="140.0" height="50.0" rx="8" ry="8" fill="#ffffff" stroke="#000000" stroke-width="1.5"/>
<text x="300.0" y="202.0" font-family="Arial, sans-serif" font-size="10" fill="#000000" text-anchor="middle">Mengambil Semua Data</text>
<text x="300.0" y="215.0" font-family="Arial, sans-serif" font-size="10" fill="#000000" text-anchor="middle">Kredensial Pengguna</text>
<rect x="230.0" y="260.0" width="140.0" height="50.0" rx="8" ry="8" fill="#ffffff" stroke="#000000" stroke-width="1.5"/>
<text x="300.0" y="282.0" font-family="Arial, sans-serif" font-size="10" fill="#000000" text-anchor="middle">Menampilkan Daftar</text>
<text x="300.0" y="295.0" font-family="Arial, sans-serif" font-size="10" fill="#000000" text-anchor="middle">Akun Terdaftar</text>
<rect x="30.0" y="340.0" width="140.0" height="50.0" rx="8" ry="8" fill="#ffffff" stroke="#000000" stroke-width="1.5"/>
<text x="100.0" y="362.0" font-family="Arial, sans-serif" font-size="10" fill="#000000" text-anchor="middle">Memilih Akun Pelanggar</text>
<text x="100.0" y="375.0" font-family="Arial, sans-serif" font-size="10" fill="#000000" text-anchor="middle">& Klik Suspend</text>
<rect x="230.0" y="420.0" width="140.0" height="50.0" rx="8" ry="8" fill="#ffffff" stroke="#000000" stroke-width="1.5"/>
<text x="300.0" y="442.0" font-family="Arial, sans-serif" font-size="10" fill="#000000" text-anchor="middle">Mengubah Status Akun</text>
<text x="300.0" y="455.0" font-family="Arial, sans-serif" font-size="10" fill="#000000" text-anchor="middle">Menjadi Nonaktif</text>
<rect x="230.0" y="500.0" width="140.0" height="50.0" rx="8" ry="8" fill="#ffffff" stroke="#000000" stroke-width="1.5"/>
<text x="300.0" y="522.0" font-family="Arial, sans-serif" font-size="10" fill="#000000" text-anchor="middle">Menampilkan Konfirmasi</text>
<text x="300.0" y="535.0" font-family="Arial, sans-serif" font-size="10" fill="#000000" text-anchor="middle">Pemblokiran Selesai</text>
<circle cx="300.0" cy="592.0" r="12.0" fill="#ffffff" stroke="#000000" stroke-width="2"/>
<circle cx="300.0" cy="592.0" r="7.0" fill="#000000"/>
<line x1="100.0" y1="74.0" x2="100.0" y2="100.0" stroke="#000000" stroke-width="1.2" marker-end="url(#arrow)"/>
<path d="M 100.0 150.0 L 100.0 165.0 L 300.0 165.0 L 300.0 180.0" fill="none" stroke="#000000" stroke-width="1.2" marker-end="url(#arrow)"/>
<line x1="300.0" y1="230.0" x2="300.0" y2="260.0" stroke="#000000" stroke-width="1.2" marker-end="url(#arrow)"/>
<path d="M 300.0 310.0 L 300.0 325.0 L 100.0 325.0 L 100.0 340.0" fill="none" stroke="#000000" stroke-width="1.2" marker-end="url(#arrow)"/>
<path d="M 100.0 390.0 L 100.0 405.0 L 300.0 405.0 L 300.0 420.0" fill="none" stroke="#000000" stroke-width="1.2" marker-end="url(#arrow)"/>
<line x1="300.0" y1="470.0" x2="300.0" y2="500.0" stroke="#000000" stroke-width="1.2" marker-end="url(#arrow)"/>
<line x1="300.0" y1="550.0" x2="300.0" y2="580.0" stroke="#000000" stroke-width="1.2" marker-end="url(#arrow)"/>
</svg>